<svg xmlns="http://www.w3.org/2000/svg" viewBox="0 0 97.52 115.08"><defs><style>.cls-1{stroke:#000;stroke-miterlimit:10;stroke-width:1.45px;}</style></defs><title>资源 1</title><g id="图层_2" data-name="图层 2"><g id="图层_1-2" data-name="图层 1"><path class="cls-1" d="M49.54,91.31a1.25,1.25,0,0,1-.81-.21,2.49,2.49,0,0,1-.73-1c-4.87-9.93-8.87-20.42-10.26-31.4s0-22.51,5.34-32.19A43,43,0,0,1,69.72,5.9c-5-2.35-10.91-2-16.14-.24-13.07,4.3-22.35,16-28.76,28.15S14,59.24,6.48,70.73a36.59,36.59,0,0,0,14.34,9.82c5.54,1.91,10.4,3,15.58.3A8.13,8.13,0,0,1,39,79.77,2.13,2.13,0,0,1,41.38,81c.46,1.37-1.07,2.53-2.4,3.09-6.21,2.59-11.82,2-18.33.21A31,31,0,0,1,4.19,73.19a3.91,3.91,0,0,1-1-2,4.32,4.32,0,0,1,.55-2Q12.1,51.42,21.08,34C26.64,23.2,32.54,13.58,43,6.79c.76-.49,1.54-1,2.32-1.41,7-3.95,15.45-5.81,23.28-3.91,2.45.6,5.27,2.21,5.07,4.73-.21,2.68-3.51,3.71-6.11,4.42C58,13.26,50.09,20.55,45.65,29.41s-5.57,19.13-4.35,29S46,77.62,50.41,86.49a5.31,5.31,0,0,1,.82,3.23A2.07,2.07,0,0,1,49.54,91.31Z"/><path class="cls-1" d="M78.41,99.34c-5.25,0-10.34-3.31-14-7.29a1.8,1.8,0,0,1,2.66-2.44c2.07,2.26,9.38,9.26,16.34,4.51,1.29-.87,4.11-3.31,2.58-7a13.24,13.24,0,0,0-.67-1.29A8.56,8.56,0,0,1,84,82.33c-.47-4.48,1.44-8.5,3.12-12,.21-.43.41-.85.61-1.28a55.76,55.76,0,0,0,3.75-12.22c1.84-8.91,2.18-16.64,1.07-23.64-1.28-8-5.29-20.49-12.5-23.38a31.56,31.56,0,0,1,5,5.67c4.42,6.73,8.36,19.49,2,42-2.13,7.54-5.21,16-11.82,21.61C70.27,83.24,64,87.17,55.09,84.72,48,82.77,43,76.07,41.21,73.27a1.81,1.81,0,0,1,3-2c1.6,2.45,5.94,8.32,11.81,9.93,7.3,2,12.39-1.17,16.82-4.91,5.87-5,8.69-12.81,10.68-19.84,2.71-9.59,6.12-27.43-1.53-39.07A19,19,0,0,0,78.11,13c-.22-.17-.5-.37-.8-.58-1.43-1-3.6-2.51-3.34-5.08a2.7,2.7,0,0,1,1.47-2.27c1.64-.82,3.67.14,5.61,1.3l.08.05c4,2.35,7.5,6.4,10.26,11.73a49.32,49.32,0,0,1,4.73,14.4C97.3,40,96.94,48.17,95,57.5a59.08,59.08,0,0,1-4,13c-.2.43-.41.86-.61,1.3-1.63,3.42-3.17,6.65-2.8,10.12A5.4,5.4,0,0,0,88.45,84a15.71,15.71,0,0,1,.87,1.7c1.75,4.19.26,8.55-3.88,11.37A12.26,12.26,0,0,1,78.41,99.34Z"/><path class="cls-1" d="M47.35,106.29c-1.44,0-2.94-.05-4.49-.15A53.68,53.68,0,0,1,24.62,102,38.4,38.4,0,0,1,16,97a17.57,17.57,0,0,1-3.84-3.93L12,92.84c-.73-1.06-1.49-2.16-1-3.48a3.17,3.17,0,0,1,2.26-1.8A20.8,20.8,0,0,1,17.87,87c4.32-.2,6.12-.57,6.51-3.5.14-1,1.05-1.31,2-1.18S28.09,83,28,84c-.83,6.21-6.08,6.45-9.92,6.62a26,26,0,0,0-3,.25l.12.17a14.6,14.6,0,0,0,3.1,3.13,34.9,34.9,0,0,0,7.79,4.51,50,50,0,0,0,17,3.86c6.89.43,12.58-.14,17.39-1.75,3.83-1.28,4.8-2.56,5-3.05a1.18,1.18,0,0,0,0-1c-.13-.35-.24-.69-.34-1C62.51,86.85,63,84.05,63.31,83.25l3.34,1.39a.69.69,0,0,0,.06-.17c0,.09-.46,2.26,2,10.2.09.28.18.57.29.87a4.8,4.8,0,0,1-.19,3.79c-1,2-3.37,3.63-7.15,4.89A44.93,44.93,0,0,1,47.35,106.29Z"/><path class="cls-1" d="M44.63,114.36c-1.73,0-3.47-.09-5.23-.26C22.69,112.48,8,103.36.94,90.3a1.81,1.81,0,0,1,3.18-1.71c6.45,12,20.1,20.41,35.63,21.92,14.81,1.43,28.55-3.69,36.75-13.72a1.81,1.81,0,0,1,2.8,2.29C71.31,108.83,58.62,114.36,44.63,114.36Z"/><path class="cls-1" d="M64.6,58.61A5.35,5.35,0,0,1,61.93,58a2.89,2.89,0,0,1-1.43-3.18,1.8,1.8,0,0,1,3.56.16,5.48,5.48,0,0,0,3.39-.81,55.91,55.91,0,0,1-2.08-9.62A1.81,1.81,0,1,1,69,44.07c0,.06.82,6.17,1.92,8.92a3.34,3.34,0,0,1-1.06,3.89A8.57,8.57,0,0,1,64.6,58.61Z"/></g></g></svg>